ISO-10303-21;
HEADER;
/* Generated by software containing ST-Developer
 * from STEP Tools, Inc. (www.steptools.com) 
 */

FILE_DESCRIPTION(
/* description */ (''),
/* implementation_level */ '2;1');

FILE_NAME(
/* name */ 'SupportPanel.step',
/* time_stamp */ '2025-04-14T14:13:12+02:00',
/* author */ (''),
/* organization */ (''),
/* preprocessor_version */ 'ST-DEVELOPER v20.1',
/* originating_system */ 'Autodesk Translation Framework v14.4.0.0',
/* authorisation */ '');

FILE_SCHEMA (('AUTOMOTIVE_DESIGN { 1 0 10303 214 3 1 1 }'));
ENDSEC;

DATA;
#10=MECHANICAL_DESIGN_GEOMETRIC_PRESENTATION_REPRESENTATION('',(#13),#1071);
#11=SHAPE_REPRESENTATION_RELATIONSHIP('SRR','None',#1078,#12);
#12=ADVANCED_BREP_SHAPE_REPRESENTATION('',(#14),#1070);
#13=STYLED_ITEM('',(#1087),#14);
#14=MANIFOLD_SOLID_BREP('Body1',#643);
#15=CYLINDRICAL_SURFACE('',#674,1.60000000000001);
#16=CYLINDRICAL_SURFACE('',#676,1.75);
#17=CYLINDRICAL_SURFACE('',#678,1.75);
#18=CYLINDRICAL_SURFACE('',#680,1.4);
#19=CYLINDRICAL_SURFACE('',#682,1.4);
#20=CYLINDRICAL_SURFACE('',#684,2.);
#21=CYLINDRICAL_SURFACE('',#686,1.6);
#22=CYLINDRICAL_SURFACE('',#688,1.6);
#23=CYLINDRICAL_SURFACE('',#690,1.39999999999999);
#24=CYLINDRICAL_SURFACE('',#692,1.40000000000001);
#25=CYLINDRICAL_SURFACE('',#694,1.75);
#26=CYLINDRICAL_SURFACE('',#696,1.75);
#27=CYLINDRICAL_SURFACE('',#698,1.99999999999999);
#28=CYLINDRICAL_SURFACE('',#700,2.);
#29=CYLINDRICAL_SURFACE('',#702,1.99999999999999);
#30=CYLINDRICAL_SURFACE('',#704,1.59999999999998);
#31=FACE_BOUND('',#126,.T.);
#32=FACE_BOUND('',#127,.T.);
#33=FACE_BOUND('',#128,.T.);
#34=FACE_BOUND('',#129,.T.);
#35=FACE_BOUND('',#130,.T.);
#36=FACE_BOUND('',#131,.T.);
#37=FACE_BOUND('',#132,.T.);
#38=FACE_BOUND('',#133,.T.);
#39=FACE_BOUND('',#134,.T.);
#40=FACE_BOUND('',#135,.T.);
#41=FACE_BOUND('',#136,.T.);
#42=FACE_BOUND('',#137,.T.);
#43=FACE_BOUND('',#138,.T.);
#44=FACE_BOUND('',#139,.T.);
#45=FACE_BOUND('',#140,.T.);
#46=FACE_BOUND('',#141,.T.);
#47=FACE_BOUND('',#171,.T.);
#48=FACE_BOUND('',#172,.T.);
#49=FACE_BOUND('',#173,.T.);
#50=FACE_BOUND('',#174,.T.);
#51=FACE_BOUND('',#175,.T.);
#52=FACE_BOUND('',#176,.T.);
#53=FACE_BOUND('',#177,.T.);
#54=FACE_BOUND('',#178,.T.);
#55=FACE_BOUND('',#179,.T.);
#56=FACE_BOUND('',#180,.T.);
#57=FACE_BOUND('',#181,.T.);
#58=FACE_BOUND('',#182,.T.);
#59=FACE_BOUND('',#183,.T.);
#60=FACE_BOUND('',#184,.T.);
#61=FACE_BOUND('',#185,.T.);
#62=FACE_BOUND('',#186,.T.);
#63=CIRCLE('',#658,1.60000000000001);
#64=CIRCLE('',#659,1.75);
#65=CIRCLE('',#660,1.75);
#66=CIRCLE('',#661,1.4);
#67=CIRCLE('',#662,1.4);
#68=CIRCLE('',#663,2.);
#69=CIRCLE('',#664,1.6);
#70=CIRCLE('',#665,1.6);
#71=CIRCLE('',#666,1.39999999999999);
#72=CIRCLE('',#667,1.40000000000001);
#73=CIRCLE('',#668,1.75);
#74=CIRCLE('',#669,1.75);
#75=CIRCLE('',#670,1.99999999999999);
#76=CIRCLE('',#671,2.);
#77=CIRCLE('',#672,1.99999999999999);
#78=CIRCLE('',#673,1.59999999999998);
#79=CIRCLE('',#675,1.60000000000001);
#80=CIRCLE('',#677,1.75);
#81=CIRCLE('',#679,1.75);
#82=CIRCLE('',#681,1.4);
#83=CIRCLE('',#683,1.4);
#84=CIRCLE('',#685,2.);
#85=CIRCLE('',#687,1.6);
#86=CIRCLE('',#689,1.6);
#87=CIRCLE('',#691,1.39999999999999);
#88=CIRCLE('',#693,1.40000000000001);
#89=CIRCLE('',#695,1.75);
#90=CIRCLE('',#697,1.75);
#91=CIRCLE('',#699,1.99999999999999);
#92=CIRCLE('',#701,2.);
#93=CIRCLE('',#703,1.99999999999999);
#94=CIRCLE('',#705,1.59999999999998);
#95=FACE_OUTER_BOUND('',#125,.T.);
#96=FACE_OUTER_BOUND('',#142,.T.);
#97=FACE_OUTER_BOUND('',#143,.T.);
#98=FACE_OUTER_BOUND('',#144,.T.);
#99=FACE_OUTER_BOUND('',#145,.T.);
#100=FACE_OUTER_BOUND('',#146,.T.);
#101=FACE_OUTER_BOUND('',#147,.T.);
#102=FACE_OUTER_BOUND('',#148,.T.);
#103=FACE_OUTER_BOUND('',#149,.T.);
#104=FACE_OUTER_BOUND('',#150,.T.);
#105=FACE_OUTER_BOUND('',#151,.T.);
#106=FACE_OUTER_BOUND('',#152,.T.);
#107=FACE_OUTER_BOUND('',#153,.T.);
#108=FACE_OUTER_BOUND('',#154,.T.);
#109=FACE_OUTER_BOUND('',#155,.T.);
#110=FACE_OUTER_BOUND('',#156,.T.);
#111=FACE_OUTER_BOUND('',#157,.T.);
#112=FACE_OUTER_BOUND('',#158,.T.);
#113=FACE_OUTER_BOUND('',#159,.T.);
#114=FACE_OUTER_BOUND('',#160,.T.);
#115=FACE_OUTER_BOUND('',#161,.T.);
#116=FACE_OUTER_BOUND('',#162,.T.);
#117=FACE_OUTER_BOUND('',#163,.T.);
#118=FACE_OUTER_BOUND('',#164,.T.);
#119=FACE_OUTER_BOUND('',#165,.T.);
#120=FACE_OUTER_BOUND('',#166,.T.);
#121=FACE_OUTER_BOUND('',#167,.T.);
#122=FACE_OUTER_BOUND('',#168,.T.);
#123=FACE_OUTER_BOUND('',#169,.T.);
#124=FACE_OUTER_BOUND('',#170,.T.);
#125=EDGE_LOOP('',(#431,#432,#433,#434,#435,#436,#437,#438,#439,#440,#441,
#442));
#126=EDGE_LOOP('',(#443));
#127=EDGE_LOOP('',(#444));
#128=EDGE_LOOP('',(#445));
#129=EDGE_LOOP('',(#446));
#130=EDGE_LOOP('',(#447));
#131=EDGE_LOOP('',(#448));
#132=EDGE_LOOP('',(#449));
#133=EDGE_LOOP('',(#450));
#134=EDGE_LOOP('',(#451));
#135=EDGE_LOOP('',(#452));
#136=EDGE_LOOP('',(#453));
#137=EDGE_LOOP('',(#454));
#138=EDGE_LOOP('',(#455));
#139=EDGE_LOOP('',(#456));
#140=EDGE_LOOP('',(#457));
#141=EDGE_LOOP('',(#458));
#142=EDGE_LOOP('',(#459,#460,#461,#462));
#143=EDGE_LOOP('',(#463,#464,#465,#466));
#144=EDGE_LOOP('',(#467,#468,#469,#470));
#145=EDGE_LOOP('',(#471,#472,#473,#474));
#146=EDGE_LOOP('',(#475,#476,#477,#478));
#147=EDGE_LOOP('',(#479,#480,#481,#482));
#148=EDGE_LOOP('',(#483,#484,#485,#486));
#149=EDGE_LOOP('',(#487,#488,#489,#490));
#150=EDGE_LOOP('',(#491,#492,#493,#494));
#151=EDGE_LOOP('',(#495,#496,#497,#498));
#152=EDGE_LOOP('',(#499,#500,#501,#502));
#153=EDGE_LOOP('',(#503,#504,#505,#506));
#154=EDGE_LOOP('',(#507,#508,#509,#510));
#155=EDGE_LOOP('',(#511,#512,#513,#514));
#156=EDGE_LOOP('',(#515,#516,#517,#518));
#157=EDGE_LOOP('',(#519,#520,#521,#522));
#158=EDGE_LOOP('',(#523,#524,#525,#526));
#159=EDGE_LOOP('',(#527,#528,#529,#530));
#160=EDGE_LOOP('',(#531,#532,#533,#534));
#161=EDGE_LOOP('',(#535,#536,#537,#538));
#162=EDGE_LOOP('',(#539,#540,#541,#542));
#163=EDGE_LOOP('',(#543,#544,#545,#546));
#164=EDGE_LOOP('',(#547,#548,#549,#550));
#165=EDGE_LOOP('',(#551,#552,#553,#554));
#166=EDGE_LOOP('',(#555,#556,#557,#558));
#167=EDGE_LOOP('',(#559,#560,#561,#562));
#168=EDGE_LOOP('',(#563,#564,#565,#566));
#169=EDGE_LOOP('',(#567,#568,#569,#570));
#170=EDGE_LOOP('',(#571,#572,#573,#574,#575,#576,#577,#578,#579,#580,#581,
#582));
#171=EDGE_LOOP('',(#583));
#172=EDGE_LOOP('',(#584));
#173=EDGE_LOOP('',(#585));
#174=EDGE_LOOP('',(#586));
#175=EDGE_LOOP('',(#587));
#176=EDGE_LOOP('',(#588));
#177=EDGE_LOOP('',(#589));
#178=EDGE_LOOP('',(#590));
#179=EDGE_LOOP('',(#591));
#180=EDGE_LOOP('',(#592));
#181=EDGE_LOOP('',(#593));
#182=EDGE_LOOP('',(#594));
#183=EDGE_LOOP('',(#595));
#184=EDGE_LOOP('',(#596));
#185=EDGE_LOOP('',(#597));
#186=EDGE_LOOP('',(#598));
#187=LINE('',#901,#239);
#188=LINE('',#903,#240);
#189=LINE('',#905,#241);
#190=LINE('',#907,#242);
#191=LINE('',#909,#243);
#192=LINE('',#911,#244);
#193=LINE('',#913,#245);
#194=LINE('',#915,#246);
#195=LINE('',#917,#247);
#196=LINE('',#919,#248);
#197=LINE('',#921,#249);
#198=LINE('',#922,#250);
#199=LINE('',#958,#251);
#200=LINE('',#962,#252);
#201=LINE('',#966,#253);
#202=LINE('',#970,#254);
#203=LINE('',#974,#255);
#204=LINE('',#978,#256);
#205=LINE('',#982,#257);
#206=LINE('',#986,#258);
#207=LINE('',#990,#259);
#208=LINE('',#994,#260);
#209=LINE('',#998,#261);
#210=LINE('',#1002,#262);
#211=LINE('',#1006,#263);
#212=LINE('',#1010,#264);
#213=LINE('',#1014,#265);
#214=LINE('',#1018,#266);
#215=LINE('',#1021,#267);
#216=LINE('',#1023,#268);
#217=LINE('',#1024,#269);
#218=LINE('',#1027,#270);
#219=LINE('',#1028,#271);
#220=LINE('',#1031,#272);
#221=LINE('',#1032,#273);
#222=LINE('',#1035,#274);
#223=LINE('',#1036,#275);
#224=LINE('',#1039,#276);
#225=LINE('',#1040,#277);
#226=LINE('',#1043,#278);
#227=LINE('',#1044,#279);
#228=LINE('',#1047,#280);
#229=LINE('',#1048,#281);
#230=LINE('',#1051,#282);
#231=LINE('',#1052,#283);
#232=LINE('',#1055,#284);
#233=LINE('',#1056,#285);
#234=LINE('',#1059,#286);
#235=LINE('',#1060,#287);
#236=LINE('',#1063,#288);
#237=LINE('',#1064,#289);
#238=LINE('',#1066,#290);
#239=VECTOR('',#723,10.);
#240=VECTOR('',#724,10.);
#241=VECTOR('',#725,10.);
#242=VECTOR('',#726,10.);
#243=VECTOR('',#727,10.);
#244=VECTOR('',#728,10.);
#245=VECTOR('',#729,10.);
#246=VECTOR('',#730,10.);
#247=VECTOR('',#731,10.);
#248=VECTOR('',#732,10.);
#249=VECTOR('',#733,10.);
#250=VECTOR('',#734,10.);
#251=VECTOR('',#771,1.60000000000001);
#252=VECTOR('',#776,1.75);
#253=VECTOR('',#781,1.75);
#254=VECTOR('',#786,1.4);
#255=VECTOR('',#791,1.4);
#256=VECTOR('',#796,2.);
#257=VECTOR('',#801,1.6);
#258=VECTOR('',#806,1.6);
#259=VECTOR('',#811,1.39999999999999);
#260=VECTOR('',#816,1.40000000000001);
#261=VECTOR('',#821,1.75);
#262=VECTOR('',#826,1.75);
#263=VECTOR('',#831,1.99999999999999);
#264=VECTOR('',#836,2.);
#265=VECTOR('',#841,1.99999999999999);
#266=VECTOR('',#846,1.59999999999998);
#267=VECTOR('',#849,10.);
#268=VECTOR('',#850,10.);
#269=VECTOR('',#851,10.);
#270=VECTOR('',#854,10.);
#271=VECTOR('',#855,10.);
#272=VECTOR('',#858,10.);
#273=VECTOR('',#859,10.);
#274=VECTOR('',#862,10.);
#275=VECTOR('',#863,10.);
#276=VECTOR('',#866,10.);
#277=VECTOR('',#867,10.);
#278=VECTOR('',#870,10.);
#279=VECTOR('',#871,10.);
#280=VECTOR('',#874,10.);
#281=VECTOR('',#875,10.);
#282=VECTOR('',#878,10.);
#283=VECTOR('',#879,10.);
#284=VECTOR('',#882,10.);
#285=VECTOR('',#883,10.);
#286=VECTOR('',#886,10.);
#287=VECTOR('',#887,10.);
#288=VECTOR('',#890,10.);
#289=VECTOR('',#891,10.);
#290=VECTOR('',#894,10.);
#291=VERTEX_POINT('',#899);
#292=VERTEX_POINT('',#900);
#293=VERTEX_POINT('',#902);
#294=VERTEX_POINT('',#904);
#295=VERTEX_POINT('',#906);
#296=VERTEX_POINT('',#908);
#297=VERTEX_POINT('',#910);
#298=VERTEX_POINT('',#912);
#299=VERTEX_POINT('',#914);
#300=VERTEX_POINT('',#916);
#301=VERTEX_POINT('',#918);
#302=VERTEX_POINT('',#920);
#303=VERTEX_POINT('',#923);
#304=VERTEX_POINT('',#925);
#305=VERTEX_POINT('',#927);
#306=VERTEX_POINT('',#929);
#307=VERTEX_POINT('',#931);
#308=VERTEX_POINT('',#933);
#309=VERTEX_POINT('',#935);
#310=VERTEX_POINT('',#937);
#311=VERTEX_POINT('',#939);
#312=VERTEX_POINT('',#941);
#313=VERTEX_POINT('',#943);
#314=VERTEX_POINT('',#945);
#315=VERTEX_POINT('',#947);
#316=VERTEX_POINT('',#949);
#317=VERTEX_POINT('',#951);
#318=VERTEX_POINT('',#953);
#319=VERTEX_POINT('',#956);
#320=VERTEX_POINT('',#960);
#321=VERTEX_POINT('',#964);
#322=VERTEX_POINT('',#968);
#323=VERTEX_POINT('',#972);
#324=VERTEX_POINT('',#976);
#325=VERTEX_POINT('',#980);
#326=VERTEX_POINT('',#984);
#327=VERTEX_POINT('',#988);
#328=VERTEX_POINT('',#992);
#329=VERTEX_POINT('',#996);
#330=VERTEX_POINT('',#1000);
#331=VERTEX_POINT('',#1004);
#332=VERTEX_POINT('',#1008);
#333=VERTEX_POINT('',#1012);
#334=VERTEX_POINT('',#1016);
#335=VERTEX_POINT('',#1020);
#336=VERTEX_POINT('',#1022);
#337=VERTEX_POINT('',#1026);
#338=VERTEX_POINT('',#1030);
#339=VERTEX_POINT('',#1034);
#340=VERTEX_POINT('',#1038);
#341=VERTEX_POINT('',#1042);
#342=VERTEX_POINT('',#1046);
#343=VERTEX_POINT('',#1050);
#344=VERTEX_POINT('',#1054);
#345=VERTEX_POINT('',#1058);
#346=VERTEX_POINT('',#1062);
#347=EDGE_CURVE('',#291,#292,#187,.T.);
#348=EDGE_CURVE('',#292,#293,#188,.T.);
#349=EDGE_CURVE('',#293,#294,#189,.T.);
#350=EDGE_CURVE('',#295,#294,#190,.T.);
#351=EDGE_CURVE('',#295,#296,#191,.T.);
#352=EDGE_CURVE('',#296,#297,#192,.T.);
#353=EDGE_CURVE('',#298,#297,#193,.T.);
#354=EDGE_CURVE('',#298,#299,#194,.T.);
#355=EDGE_CURVE('',#300,#299,#195,.T.);
#356=EDGE_CURVE('',#301,#300,#196,.T.);
#357=EDGE_CURVE('',#302,#301,#197,.T.);
#358=EDGE_CURVE('',#291,#302,#198,.T.);
#359=EDGE_CURVE('',#303,#303,#63,.T.);
#360=EDGE_CURVE('',#304,#304,#64,.T.);
#361=EDGE_CURVE('',#305,#305,#65,.T.);
#362=EDGE_CURVE('',#306,#306,#66,.T.);
#363=EDGE_CURVE('',#307,#307,#67,.T.);
#364=EDGE_CURVE('',#308,#308,#68,.T.);
#365=EDGE_CURVE('',#309,#309,#69,.T.);
#366=EDGE_CURVE('',#310,#310,#70,.T.);
#367=EDGE_CURVE('',#311,#311,#71,.T.);
#368=EDGE_CURVE('',#312,#312,#72,.T.);
#369=EDGE_CURVE('',#313,#313,#73,.T.);
#370=EDGE_CURVE('',#314,#314,#74,.T.);
#371=EDGE_CURVE('',#315,#315,#75,.T.);
#372=EDGE_CURVE('',#316,#316,#76,.T.);
#373=EDGE_CURVE('',#317,#317,#77,.T.);
#374=EDGE_CURVE('',#318,#318,#78,.T.);
#375=EDGE_CURVE('',#319,#319,#79,.T.);
#376=EDGE_CURVE('',#319,#303,#199,.T.);
#377=EDGE_CURVE('',#320,#320,#80,.T.);
#378=EDGE_CURVE('',#320,#304,#200,.T.);
#379=EDGE_CURVE('',#321,#321,#81,.T.);
#380=EDGE_CURVE('',#321,#305,#201,.T.);
#381=EDGE_CURVE('',#322,#322,#82,.T.);
#382=EDGE_CURVE('',#322,#306,#202,.T.);
#383=EDGE_CURVE('',#323,#323,#83,.T.);
#384=EDGE_CURVE('',#323,#307,#203,.T.);
#385=EDGE_CURVE('',#324,#324,#84,.T.);
#386=EDGE_CURVE('',#324,#308,#204,.T.);
#387=EDGE_CURVE('',#325,#325,#85,.T.);
#388=EDGE_CURVE('',#325,#309,#205,.T.);
#389=EDGE_CURVE('',#326,#326,#86,.T.);
#390=EDGE_CURVE('',#326,#310,#206,.T.);
#391=EDGE_CURVE('',#327,#327,#87,.T.);
#392=EDGE_CURVE('',#327,#311,#207,.T.);
#393=EDGE_CURVE('',#328,#328,#88,.T.);
#394=EDGE_CURVE('',#328,#312,#208,.T.);
#395=EDGE_CURVE('',#329,#329,#89,.T.);
#396=EDGE_CURVE('',#329,#313,#209,.T.);
#397=EDGE_CURVE('',#330,#330,#90,.T.);
#398=EDGE_CURVE('',#330,#314,#210,.T.);
#399=EDGE_CURVE('',#331,#331,#91,.T.);
#400=EDGE_CURVE('',#331,#315,#211,.T.);
#401=EDGE_CURVE('',#332,#332,#92,.T.);
#402=EDGE_CURVE('',#332,#316,#212,.T.);
#403=EDGE_CURVE('',#333,#333,#93,.T.);
#404=EDGE_CURVE('',#333,#317,#213,.T.);
#405=EDGE_CURVE('',#334,#334,#94,.T.);
#406=EDGE_CURVE('',#334,#318,#214,.T.);
#407=EDGE_CURVE('',#292,#335,#215,.T.);
#408=EDGE_CURVE('',#336,#335,#216,.T.);
#409=EDGE_CURVE('',#293,#336,#217,.T.);
#410=EDGE_CURVE('',#337,#336,#218,.T.);
#411=EDGE_CURVE('',#294,#337,#219,.T.);
#412=EDGE_CURVE('',#338,#337,#220,.T.);
#413=EDGE_CURVE('',#295,#338,#221,.T.);
#414=EDGE_CURVE('',#339,#338,#222,.T.);
#415=EDGE_CURVE('',#296,#339,#223,.T.);
#416=EDGE_CURVE('',#340,#339,#224,.T.);
#417=EDGE_CURVE('',#297,#340,#225,.T.);
#418=EDGE_CURVE('',#341,#340,#226,.T.);
#419=EDGE_CURVE('',#298,#341,#227,.T.);
#420=EDGE_CURVE('',#342,#341,#228,.T.);
#421=EDGE_CURVE('',#299,#342,#229,.T.);
#422=EDGE_CURVE('',#343,#342,#230,.T.);
#423=EDGE_CURVE('',#300,#343,#231,.T.);
#424=EDGE_CURVE('',#344,#343,#232,.T.);
#425=EDGE_CURVE('',#301,#344,#233,.T.);
#426=EDGE_CURVE('',#345,#344,#234,.T.);
#427=EDGE_CURVE('',#302,#345,#235,.T.);
#428=EDGE_CURVE('',#346,#345,#236,.T.);
#429=EDGE_CURVE('',#291,#346,#237,.T.);
#430=EDGE_CURVE('',#335,#346,#238,.T.);
#431=ORIENTED_EDGE('',*,*,#347,.T.);
#432=ORIENTED_EDGE('',*,*,#348,.T.);
#433=ORIENTED_EDGE('',*,*,#349,.T.);
#434=ORIENTED_EDGE('',*,*,#350,.F.);
#435=ORIENTED_EDGE('',*,*,#351,.T.);
#436=ORIENTED_EDGE('',*,*,#352,.T.);
#437=ORIENTED_EDGE('',*,*,#353,.F.);
#438=ORIENTED_EDGE('',*,*,#354,.T.);
#439=ORIENTED_EDGE('',*,*,#355,.F.);
#440=ORIENTED_EDGE('',*,*,#356,.F.);
#441=ORIENTED_EDGE('',*,*,#357,.F.);
#442=ORIENTED_EDGE('',*,*,#358,.F.);
#443=ORIENTED_EDGE('',*,*,#359,.T.);
#444=ORIENTED_EDGE('',*,*,#360,.T.);
#445=ORIENTED_EDGE('',*,*,#361,.T.);
#446=ORIENTED_EDGE('',*,*,#362,.T.);
#447=ORIENTED_EDGE('',*,*,#363,.T.);
#448=ORIENTED_EDGE('',*,*,#364,.T.);
#449=ORIENTED_EDGE('',*,*,#365,.T.);
#450=ORIENTED_EDGE('',*,*,#366,.T.);
#451=ORIENTED_EDGE('',*,*,#367,.T.);
#452=ORIENTED_EDGE('',*,*,#368,.T.);
#453=ORIENTED_EDGE('',*,*,#369,.T.);
#454=ORIENTED_EDGE('',*,*,#370,.T.);
#455=ORIENTED_EDGE('',*,*,#371,.T.);
#456=ORIENTED_EDGE('',*,*,#372,.T.);
#457=ORIENTED_EDGE('',*,*,#373,.T.);
#458=ORIENTED_EDGE('',*,*,#374,.T.);
#459=ORIENTED_EDGE('',*,*,#375,.F.);
#460=ORIENTED_EDGE('',*,*,#376,.T.);
#461=ORIENTED_EDGE('',*,*,#359,.F.);
#462=ORIENTED_EDGE('',*,*,#376,.F.);
#463=ORIENTED_EDGE('',*,*,#377,.F.);
#464=ORIENTED_EDGE('',*,*,#378,.T.);
#465=ORIENTED_EDGE('',*,*,#360,.F.);
#466=ORIENTED_EDGE('',*,*,#378,.F.);
#467=ORIENTED_EDGE('',*,*,#379,.F.);
#468=ORIENTED_EDGE('',*,*,#380,.T.);
#469=ORIENTED_EDGE('',*,*,#361,.F.);
#470=ORIENTED_EDGE('',*,*,#380,.F.);
#471=ORIENTED_EDGE('',*,*,#381,.F.);
#472=ORIENTED_EDGE('',*,*,#382,.T.);
#473=ORIENTED_EDGE('',*,*,#362,.F.);
#474=ORIENTED_EDGE('',*,*,#382,.F.);
#475=ORIENTED_EDGE('',*,*,#383,.F.);
#476=ORIENTED_EDGE('',*,*,#384,.T.);
#477=ORIENTED_EDGE('',*,*,#363,.F.);
#478=ORIENTED_EDGE('',*,*,#384,.F.);
#479=ORIENTED_EDGE('',*,*,#385,.F.);
#480=ORIENTED_EDGE('',*,*,#386,.T.);
#481=ORIENTED_EDGE('',*,*,#364,.F.);
#482=ORIENTED_EDGE('',*,*,#386,.F.);
#483=ORIENTED_EDGE('',*,*,#387,.F.);
#484=ORIENTED_EDGE('',*,*,#388,.T.);
#485=ORIENTED_EDGE('',*,*,#365,.F.);
#486=ORIENTED_EDGE('',*,*,#388,.F.);
#487=ORIENTED_EDGE('',*,*,#389,.F.);
#488=ORIENTED_EDGE('',*,*,#390,.T.);
#489=ORIENTED_EDGE('',*,*,#366,.F.);
#490=ORIENTED_EDGE('',*,*,#390,.F.);
#491=ORIENTED_EDGE('',*,*,#391,.F.);
#492=ORIENTED_EDGE('',*,*,#392,.T.);
#493=ORIENTED_EDGE('',*,*,#367,.F.);
#494=ORIENTED_EDGE('',*,*,#392,.F.);
#495=ORIENTED_EDGE('',*,*,#393,.F.);
#496=ORIENTED_EDGE('',*,*,#394,.T.);
#497=ORIENTED_EDGE('',*,*,#368,.F.);
#498=ORIENTED_EDGE('',*,*,#394,.F.);
#499=ORIENTED_EDGE('',*,*,#395,.F.);
#500=ORIENTED_EDGE('',*,*,#396,.T.);
#501=ORIENTED_EDGE('',*,*,#369,.F.);
#502=ORIENTED_EDGE('',*,*,#396,.F.);
#503=ORIENTED_EDGE('',*,*,#397,.F.);
#504=ORIENTED_EDGE('',*,*,#398,.T.);
#505=ORIENTED_EDGE('',*,*,#370,.F.);
#506=ORIENTED_EDGE('',*,*,#398,.F.);
#507=ORIENTED_EDGE('',*,*,#399,.F.);
#508=ORIENTED_EDGE('',*,*,#400,.T.);
#509=ORIENTED_EDGE('',*,*,#371,.F.);
#510=ORIENTED_EDGE('',*,*,#400,.F.);
#511=ORIENTED_EDGE('',*,*,#401,.F.);
#512=ORIENTED_EDGE('',*,*,#402,.T.);
#513=ORIENTED_EDGE('',*,*,#372,.F.);
#514=ORIENTED_EDGE('',*,*,#402,.F.);
#515=ORIENTED_EDGE('',*,*,#403,.F.);
#516=ORIENTED_EDGE('',*,*,#404,.T.);
#517=ORIENTED_EDGE('',*,*,#373,.F.);
#518=ORIENTED_EDGE('',*,*,#404,.F.);
#519=ORIENTED_EDGE('',*,*,#405,.F.);
#520=ORIENTED_EDGE('',*,*,#406,.T.);
#521=ORIENTED_EDGE('',*,*,#374,.F.);
#522=ORIENTED_EDGE('',*,*,#406,.F.);
#523=ORIENTED_EDGE('',*,*,#348,.F.);
#524=ORIENTED_EDGE('',*,*,#407,.T.);
#525=ORIENTED_EDGE('',*,*,#408,.F.);
#526=ORIENTED_EDGE('',*,*,#409,.F.);
#527=ORIENTED_EDGE('',*,*,#349,.F.);
#528=ORIENTED_EDGE('',*,*,#409,.T.);
#529=ORIENTED_EDGE('',*,*,#410,.F.);
#530=ORIENTED_EDGE('',*,*,#411,.F.);
#531=ORIENTED_EDGE('',*,*,#350,.T.);
#532=ORIENTED_EDGE('',*,*,#411,.T.);
#533=ORIENTED_EDGE('',*,*,#412,.F.);
#534=ORIENTED_EDGE('',*,*,#413,.F.);
#535=ORIENTED_EDGE('',*,*,#351,.F.);
#536=ORIENTED_EDGE('',*,*,#413,.T.);
#537=ORIENTED_EDGE('',*,*,#414,.F.);
#538=ORIENTED_EDGE('',*,*,#415,.F.);
#539=ORIENTED_EDGE('',*,*,#352,.F.);
#540=ORIENTED_EDGE('',*,*,#415,.T.);
#541=ORIENTED_EDGE('',*,*,#416,.F.);
#542=ORIENTED_EDGE('',*,*,#417,.F.);
#543=ORIENTED_EDGE('',*,*,#353,.T.);
#544=ORIENTED_EDGE('',*,*,#417,.T.);
#545=ORIENTED_EDGE('',*,*,#418,.F.);
#546=ORIENTED_EDGE('',*,*,#419,.F.);
#547=ORIENTED_EDGE('',*,*,#354,.F.);
#548=ORIENTED_EDGE('',*,*,#419,.T.);
#549=ORIENTED_EDGE('',*,*,#420,.F.);
#550=ORIENTED_EDGE('',*,*,#421,.F.);
#551=ORIENTED_EDGE('',*,*,#355,.T.);
#552=ORIENTED_EDGE('',*,*,#421,.T.);
#553=ORIENTED_EDGE('',*,*,#422,.F.);
#554=ORIENTED_EDGE('',*,*,#423,.F.);
#555=ORIENTED_EDGE('',*,*,#356,.T.);
#556=ORIENTED_EDGE('',*,*,#423,.T.);
#557=ORIENTED_EDGE('',*,*,#424,.F.);
#558=ORIENTED_EDGE('',*,*,#425,.F.);
#559=ORIENTED_EDGE('',*,*,#357,.T.);
#560=ORIENTED_EDGE('',*,*,#425,.T.);
#561=ORIENTED_EDGE('',*,*,#426,.F.);
#562=ORIENTED_EDGE('',*,*,#427,.F.);
#563=ORIENTED_EDGE('',*,*,#358,.T.);
#564=ORIENTED_EDGE('',*,*,#427,.T.);
#565=ORIENTED_EDGE('',*,*,#428,.F.);
#566=ORIENTED_EDGE('',*,*,#429,.F.);
#567=ORIENTED_EDGE('',*,*,#347,.F.);
#568=ORIENTED_EDGE('',*,*,#429,.T.);
#569=ORIENTED_EDGE('',*,*,#430,.F.);
#570=ORIENTED_EDGE('',*,*,#407,.F.);
#571=ORIENTED_EDGE('',*,*,#430,.T.);
#572=ORIENTED_EDGE('',*,*,#428,.T.);
#573=ORIENTED_EDGE('',*,*,#426,.T.);
#574=ORIENTED_EDGE('',*,*,#424,.T.);
#575=ORIENTED_EDGE('',*,*,#422,.T.);
#576=ORIENTED_EDGE('',*,*,#420,.T.);
#577=ORIENTED_EDGE('',*,*,#418,.T.);
#578=ORIENTED_EDGE('',*,*,#416,.T.);
#579=ORIENTED_EDGE('',*,*,#414,.T.);
#580=ORIENTED_EDGE('',*,*,#412,.T.);
#581=ORIENTED_EDGE('',*,*,#410,.T.);
#582=ORIENTED_EDGE('',*,*,#408,.T.);
#583=ORIENTED_EDGE('',*,*,#405,.T.);
#584=ORIENTED_EDGE('',*,*,#403,.T.);
#585=ORIENTED_EDGE('',*,*,#401,.T.);
#586=ORIENTED_EDGE('',*,*,#399,.T.);
#587=ORIENTED_EDGE('',*,*,#397,.T.);
#588=ORIENTED_EDGE('',*,*,#395,.T.);
#589=ORIENTED_EDGE('',*,*,#393,.T.);
#590=ORIENTED_EDGE('',*,*,#391,.T.);
#591=ORIENTED_EDGE('',*,*,#389,.T.);
#592=ORIENTED_EDGE('',*,*,#387,.T.);
#593=ORIENTED_EDGE('',*,*,#385,.T.);
#594=ORIENTED_EDGE('',*,*,#383,.T.);
#595=ORIENTED_EDGE('',*,*,#381,.T.);
#596=ORIENTED_EDGE('',*,*,#379,.T.);
#597=ORIENTED_EDGE('',*,*,#377,.T.);
#598=ORIENTED_EDGE('',*,*,#375,.T.);
#599=PLANE('',#657);
#600=PLANE('',#706);
#601=PLANE('',#707);
#602=PLANE('',#708);
#603=PLANE('',#709);
#604=PLANE('',#710);
#605=PLANE('',#711);
#606=PLANE('',#712);
#607=PLANE('',#713);
#608=PLANE('',#714);
#609=PLANE('',#715);
#610=PLANE('',#716);
#611=PLANE('',#717);
#612=PLANE('',#718);
#613=ADVANCED_FACE('',(#95,#31,#32,#33,#34,#35,#36,#37,#38,#39,#40,#41,
#42,#43,#44,#45,#46),#599,.F.);
#614=ADVANCED_FACE('',(#96),#15,.F.);
#615=ADVANCED_FACE('',(#97),#16,.F.);
#616=ADVANCED_FACE('',(#98),#17,.F.);
#617=ADVANCED_FACE('',(#99),#18,.F.);
#618=ADVANCED_FACE('',(#100),#19,.F.);
#619=ADVANCED_FACE('',(#101),#20,.F.);
#620=ADVANCED_FACE('',(#102),#21,.F.);
#621=ADVANCED_FACE('',(#103),#22,.F.);
#622=ADVANCED_FACE('',(#104),#23,.F.);
#623=ADVANCED_FACE('',(#105),#24,.F.);
#624=ADVANCED_FACE('',(#106),#25,.F.);
#625=ADVANCED_FACE('',(#107),#26,.F.);
#626=ADVANCED_FACE('',(#108),#27,.F.);
#627=ADVANCED_FACE('',(#109),#28,.F.);
#628=ADVANCED_FACE('',(#110),#29,.F.);
#629=ADVANCED_FACE('',(#111),#30,.F.);
#630=ADVANCED_FACE('',(#112),#600,.T.);
#631=ADVANCED_FACE('',(#113),#601,.T.);
#632=ADVANCED_FACE('',(#114),#602,.T.);
#633=ADVANCED_FACE('',(#115),#603,.T.);
#634=ADVANCED_FACE('',(#116),#604,.T.);
#635=ADVANCED_FACE('',(#117),#605,.T.);
#636=ADVANCED_FACE('',(#118),#606,.T.);
#637=ADVANCED_FACE('',(#119),#607,.T.);
#638=ADVANCED_FACE('',(#120),#608,.T.);
#639=ADVANCED_FACE('',(#121),#609,.T.);
#640=ADVANCED_FACE('',(#122),#610,.T.);
#641=ADVANCED_FACE('',(#123),#611,.T.);
#642=ADVANCED_FACE('',(#124,#47,#48,#49,#50,#51,#52,#53,#54,#55,#56,#57,
#58,#59,#60,#61,#62),#612,.T.);
#643=CLOSED_SHELL('',(#613,#614,#615,#616,#617,#618,#619,#620,#621,#622,
#623,#624,#625,#626,#627,#628,#629,#630,#631,#632,#633,#634,#635,#636,#637,
#638,#639,#640,#641,#642));
#644=DERIVED_UNIT_ELEMENT(#646,1.);
#645=DERIVED_UNIT_ELEMENT(#1073,-3.);
#646=(
MASS_UNIT()
NAMED_UNIT(*)
SI_UNIT(.KILO.,.GRAM.)
);
#647=DERIVED_UNIT((#644,#645));
#648=MEASURE_REPRESENTATION_ITEM('density measure',
POSITIVE_RATIO_MEASURE(7850.),#647);
#649=PROPERTY_DEFINITION_REPRESENTATION(#654,#651);
#650=PROPERTY_DEFINITION_REPRESENTATION(#655,#652);
#651=REPRESENTATION('material name',(#653),#1070);
#652=REPRESENTATION('density',(#648),#1070);
#653=DESCRIPTIVE_REPRESENTATION_ITEM('Steel','Steel');
#654=PROPERTY_DEFINITION('material property','material name',#1080);
#655=PROPERTY_DEFINITION('material property','density of part',#1080);
#656=AXIS2_PLACEMENT_3D('',#897,#719,#720);
#657=AXIS2_PLACEMENT_3D('',#898,#721,#722);
#658=AXIS2_PLACEMENT_3D('',#924,#735,#736);
#659=AXIS2_PLACEMENT_3D('',#926,#737,#738);
#660=AXIS2_PLACEMENT_3D('',#928,#739,#740);
#661=AXIS2_PLACEMENT_3D('',#930,#741,#742);
#662=AXIS2_PLACEMENT_3D('',#932,#743,#744);
#663=AXIS2_PLACEMENT_3D('',#934,#745,#746);
#664=AXIS2_PLACEMENT_3D('',#936,#747,#748);
#665=AXIS2_PLACEMENT_3D('',#938,#749,#750);
#666=AXIS2_PLACEMENT_3D('',#940,#751,#752);
#667=AXIS2_PLACEMENT_3D('',#942,#753,#754);
#668=AXIS2_PLACEMENT_3D('',#944,#755,#756);
#669=AXIS2_PLACEMENT_3D('',#946,#757,#758);
#670=AXIS2_PLACEMENT_3D('',#948,#759,#760);
#671=AXIS2_PLACEMENT_3D('',#950,#761,#762);
#672=AXIS2_PLACEMENT_3D('',#952,#763,#764);
#673=AXIS2_PLACEMENT_3D('',#954,#765,#766);
#674=AXIS2_PLACEMENT_3D('',#955,#767,#768);
#675=AXIS2_PLACEMENT_3D('',#957,#769,#770);
#676=AXIS2_PLACEMENT_3D('',#959,#772,#773);
#677=AXIS2_PLACEMENT_3D('',#961,#774,#775);
#678=AXIS2_PLACEMENT_3D('',#963,#777,#778);
#679=AXIS2_PLACEMENT_3D('',#965,#779,#780);
#680=AXIS2_PLACEMENT_3D('',#967,#782,#783);
#681=AXIS2_PLACEMENT_3D('',#969,#784,#785);
#682=AXIS2_PLACEMENT_3D('',#971,#787,#788);
#683=AXIS2_PLACEMENT_3D('',#973,#789,#790);
#684=AXIS2_PLACEMENT_3D('',#975,#792,#793);
#685=AXIS2_PLACEMENT_3D('',#977,#794,#795);
#686=AXIS2_PLACEMENT_3D('',#979,#797,#798);
#687=AXIS2_PLACEMENT_3D('',#981,#799,#800);
#688=AXIS2_PLACEMENT_3D('',#983,#802,#803);
#689=AXIS2_PLACEMENT_3D('',#985,#804,#805);
#690=AXIS2_PLACEMENT_3D('',#987,#807,#808);
#691=AXIS2_PLACEMENT_3D('',#989,#809,#810);
#692=AXIS2_PLACEMENT_3D('',#991,#812,#813);
#693=AXIS2_PLACEMENT_3D('',#993,#814,#815);
#694=AXIS2_PLACEMENT_3D('',#995,#817,#818);
#695=AXIS2_PLACEMENT_3D('',#997,#819,#820);
#696=AXIS2_PLACEMENT_3D('',#999,#822,#823);
#697=AXIS2_PLACEMENT_3D('',#1001,#824,#825);
#698=AXIS2_PLACEMENT_3D('',#1003,#827,#828);
#699=AXIS2_PLACEMENT_3D('',#1005,#829,#830);
#700=AXIS2_PLACEMENT_3D('',#1007,#832,#833);
#701=AXIS2_PLACEMENT_3D('',#1009,#834,#835);
#702=AXIS2_PLACEMENT_3D('',#1011,#837,#838);
#703=AXIS2_PLACEMENT_3D('',#1013,#839,#840);
#704=AXIS2_PLACEMENT_3D('',#1015,#842,#843);
#705=AXIS2_PLACEMENT_3D('',#1017,#844,#845);
#706=AXIS2_PLACEMENT_3D('',#1019,#847,#848);
#707=AXIS2_PLACEMENT_3D('',#1025,#852,#853);
#708=AXIS2_PLACEMENT_3D('',#1029,#856,#857);
#709=AXIS2_PLACEMENT_3D('',#1033,#860,#861);
#710=AXIS2_PLACEMENT_3D('',#1037,#864,#865);
#711=AXIS2_PLACEMENT_3D('',#1041,#868,#869);
#712=AXIS2_PLACEMENT_3D('',#1045,#872,#873);
#713=AXIS2_PLACEMENT_3D('',#1049,#876,#877);
#714=AXIS2_PLACEMENT_3D('',#1053,#880,#881);
#715=AXIS2_PLACEMENT_3D('',#1057,#884,#885);
#716=AXIS2_PLACEMENT_3D('',#1061,#888,#889);
#717=AXIS2_PLACEMENT_3D('',#1065,#892,#893);
#718=AXIS2_PLACEMENT_3D('',#1067,#895,#896);
#719=DIRECTION('axis',(0.,0.,1.));
#720=DIRECTION('refdir',(1.,0.,0.));
#721=DIRECTION('center_axis',(0.,0.,1.));
#722=DIRECTION('ref_axis',(1.,0.,0.));
#723=DIRECTION('',(0.99999999909492,-4.25459827605815E-5,0.));
#724=DIRECTION('',(-4.2545982760574E-5,-0.99999999909492,0.));
#725=DIRECTION('',(1.,0.,0.));
#726=DIRECTION('',(4.25459827606611E-5,0.99999999909492,0.));
#727=DIRECTION('',(0.99999999909492,-4.25459827606933E-5,0.));
#728=DIRECTION('',(-4.25459827606873E-5,-0.99999999909492,0.));
#729=DIRECTION('',(0.841148463546172,0.54080427353518,0.));
#730=DIRECTION('',(-0.99999999909492,4.25459827605816E-5,0.));
#731=DIRECTION('',(0.836374167548168,-0.54815896586493,0.));
#732=DIRECTION('',(-4.25459827603701E-5,-0.99999999909492,0.));
#733=DIRECTION('',(-0.99999999909492,4.25459827603581E-5,0.));
#734=DIRECTION('',(0.0101402142175168,-0.999948586706148,0.));
#735=DIRECTION('center_axis',(0.,0.,1.));
#736=DIRECTION('ref_axis',(1.,0.,0.));
#737=DIRECTION('center_axis',(0.,0.,1.));
#738=DIRECTION('ref_axis',(1.,0.,0.));
#739=DIRECTION('center_axis',(0.,0.,1.));
#740=DIRECTION('ref_axis',(1.,0.,0.));
#741=DIRECTION('center_axis',(0.,0.,1.));
#742=DIRECTION('ref_axis',(1.,0.,0.));
#743=DIRECTION('center_axis',(0.,0.,1.));
#744=DIRECTION('ref_axis',(1.,0.,0.));
#745=DIRECTION('center_axis',(0.,0.,1.));
#746=DIRECTION('ref_axis',(1.,0.,0.));
#747=DIRECTION('center_axis',(0.,0.,1.));
#748=DIRECTION('ref_axis',(1.,0.,0.));
#749=DIRECTION('center_axis',(0.,0.,1.));
#750=DIRECTION('ref_axis',(1.,0.,0.));
#751=DIRECTION('center_axis',(0.,0.,1.));
#752=DIRECTION('ref_axis',(1.,0.,0.));
#753=DIRECTION('center_axis',(0.,0.,1.));
#754=DIRECTION('ref_axis',(1.,0.,0.));
#755=DIRECTION('center_axis',(0.,0.,1.));
#756=DIRECTION('ref_axis',(1.,0.,0.));
#757=DIRECTION('center_axis',(0.,0.,1.));
#758=DIRECTION('ref_axis',(1.,0.,0.));
#759=DIRECTION('center_axis',(0.,0.,1.));
#760=DIRECTION('ref_axis',(1.,0.,0.));
#761=DIRECTION('center_axis',(0.,0.,1.));
#762=DIRECTION('ref_axis',(1.,0.,0.));
#763=DIRECTION('center_axis',(0.,0.,1.));
#764=DIRECTION('ref_axis',(1.,0.,0.));
#765=DIRECTION('center_axis',(0.,0.,1.));
#766=DIRECTION('ref_axis',(1.,0.,0.));
#767=DIRECTION('center_axis',(0.,0.,1.));
#768=DIRECTION('ref_axis',(1.,0.,0.));
#769=DIRECTION('center_axis',(0.,0.,-1.));
#770=DIRECTION('ref_axis',(1.,0.,0.));
#771=DIRECTION('',(0.,0.,-1.));
#772=DIRECTION('center_axis',(0.,0.,1.));
#773=DIRECTION('ref_axis',(1.,0.,0.));
#774=DIRECTION('center_axis',(0.,0.,-1.));
#775=DIRECTION('ref_axis',(1.,0.,0.));
#776=DIRECTION('',(0.,0.,-1.));
#777=DIRECTION('center_axis',(0.,0.,1.));
#778=DIRECTION('ref_axis',(1.,0.,0.));
#779=DIRECTION('center_axis',(0.,0.,-1.));
#780=DIRECTION('ref_axis',(1.,0.,0.));
#781=DIRECTION('',(0.,0.,-1.));
#782=DIRECTION('center_axis',(0.,0.,1.));
#783=DIRECTION('ref_axis',(1.,0.,0.));
#784=DIRECTION('center_axis',(0.,0.,-1.));
#785=DIRECTION('ref_axis',(1.,0.,0.));
#786=DIRECTION('',(0.,0.,-1.));
#787=DIRECTION('center_axis',(0.,0.,1.));
#788=DIRECTION('ref_axis',(1.,0.,0.));
#789=DIRECTION('center_axis',(0.,0.,-1.));
#790=DIRECTION('ref_axis',(1.,0.,0.));
#791=DIRECTION('',(0.,0.,-1.));
#792=DIRECTION('center_axis',(0.,0.,1.));
#793=DIRECTION('ref_axis',(1.,0.,0.));
#794=DIRECTION('center_axis',(0.,0.,-1.));
#795=DIRECTION('ref_axis',(1.,0.,0.));
#796=DIRECTION('',(0.,0.,-1.));
#797=DIRECTION('center_axis',(0.,0.,1.));
#798=DIRECTION('ref_axis',(1.,0.,0.));
#799=DIRECTION('center_axis',(0.,0.,-1.));
#800=DIRECTION('ref_axis',(1.,0.,0.));
#801=DIRECTION('',(0.,0.,-1.));
#802=DIRECTION('center_axis',(0.,0.,1.));
#803=DIRECTION('ref_axis',(1.,0.,0.));
#804=DIRECTION('center_axis',(0.,0.,-1.));
#805=DIRECTION('ref_axis',(1.,0.,0.));
#806=DIRECTION('',(0.,0.,-1.));
#807=DIRECTION('center_axis',(0.,0.,1.));
#808=DIRECTION('ref_axis',(1.,0.,0.));
#809=DIRECTION('center_axis',(0.,0.,-1.));
#810=DIRECTION('ref_axis',(1.,0.,0.));
#811=DIRECTION('',(0.,0.,-1.));
#812=DIRECTION('center_axis',(0.,0.,1.));
#813=DIRECTION('ref_axis',(1.,0.,0.));
#814=DIRECTION('center_axis',(0.,0.,-1.));
#815=DIRECTION('ref_axis',(1.,0.,0.));
#816=DIRECTION('',(0.,0.,-1.));
#817=DIRECTION('center_axis',(0.,0.,1.));
#818=DIRECTION('ref_axis',(1.,0.,0.));
#819=DIRECTION('center_axis',(0.,0.,-1.));
#820=DIRECTION('ref_axis',(1.,0.,0.));
#821=DIRECTION('',(0.,0.,-1.));
#822=DIRECTION('center_axis',(0.,0.,1.));
#823=DIRECTION('ref_axis',(1.,0.,0.));
#824=DIRECTION('center_axis',(0.,0.,-1.));
#825=DIRECTION('ref_axis',(1.,0.,0.));
#826=DIRECTION('',(0.,0.,-1.));
#827=DIRECTION('center_axis',(0.,0.,1.));
#828=DIRECTION('ref_axis',(1.,0.,0.));
#829=DIRECTION('center_axis',(0.,0.,-1.));
#830=DIRECTION('ref_axis',(1.,0.,0.));
#831=DIRECTION('',(0.,0.,-1.));
#832=DIRECTION('center_axis',(0.,0.,1.));
#833=DIRECTION('ref_axis',(1.,0.,0.));
#834=DIRECTION('center_axis',(0.,0.,-1.));
#835=DIRECTION('ref_axis',(1.,0.,0.));
#836=DIRECTION('',(0.,0.,-1.));
#837=DIRECTION('center_axis',(0.,0.,1.));
#838=DIRECTION('ref_axis',(1.,0.,0.));
#839=DIRECTION('center_axis',(0.,0.,-1.));
#840=DIRECTION('ref_axis',(1.,0.,0.));
#841=DIRECTION('',(0.,0.,-1.));
#842=DIRECTION('center_axis',(0.,0.,1.));
#843=DIRECTION('ref_axis',(1.,0.,0.));
#844=DIRECTION('center_axis',(0.,0.,-1.));
#845=DIRECTION('ref_axis',(1.,0.,0.));
#846=DIRECTION('',(0.,0.,-1.));
#847=DIRECTION('center_axis',(0.99999999909492,-4.2545982760574E-5,0.));
#848=DIRECTION('ref_axis',(4.2545982760574E-5,0.99999999909492,0.));
#849=DIRECTION('',(0.,0.,1.));
#850=DIRECTION('',(4.2545982760574E-5,0.99999999909492,0.));
#851=DIRECTION('',(0.,0.,1.));
#852=DIRECTION('center_axis',(0.,1.,0.));
#853=DIRECTION('ref_axis',(-1.,0.,0.));
#854=DIRECTION('',(-1.,0.,0.));
#855=DIRECTION('',(0.,0.,1.));
#856=DIRECTION('center_axis',(0.99999999909492,-4.25459827606611E-5,0.));
#857=DIRECTION('ref_axis',(4.25459827606611E-5,0.99999999909492,0.));
#858=DIRECTION('',(4.25459827606611E-5,0.99999999909492,0.));
#859=DIRECTION('',(0.,0.,1.));
#860=DIRECTION('center_axis',(4.25459827606933E-5,0.99999999909492,0.));
#861=DIRECTION('ref_axis',(-0.99999999909492,4.25459827606933E-5,0.));
#862=DIRECTION('',(-0.99999999909492,4.25459827606933E-5,0.));
#863=DIRECTION('',(0.,0.,1.));
#864=DIRECTION('center_axis',(0.99999999909492,-4.25459827606873E-5,0.));
#865=DIRECTION('ref_axis',(4.25459827606873E-5,0.99999999909492,0.));
#866=DIRECTION('',(4.25459827606873E-5,0.99999999909492,0.));
#867=DIRECTION('',(0.,0.,1.));
#868=DIRECTION('center_axis',(0.54080427353518,-0.841148463546172,0.));
#869=DIRECTION('ref_axis',(0.841148463546172,0.54080427353518,0.));
#870=DIRECTION('',(0.841148463546172,0.54080427353518,0.));
#871=DIRECTION('',(0.,0.,1.));
#872=DIRECTION('center_axis',(-4.25459827605816E-5,-0.99999999909492,0.));
#873=DIRECTION('ref_axis',(0.99999999909492,-4.25459827605816E-5,0.));
#874=DIRECTION('',(0.99999999909492,-4.25459827605816E-5,0.));
#875=DIRECTION('',(0.,0.,1.));
#876=DIRECTION('center_axis',(-0.54815896586493,-0.836374167548168,0.));
#877=DIRECTION('ref_axis',(0.836374167548168,-0.54815896586493,0.));
#878=DIRECTION('',(0.836374167548168,-0.54815896586493,0.));
#879=DIRECTION('',(0.,0.,1.));
#880=DIRECTION('center_axis',(-0.99999999909492,4.25459827603701E-5,0.));
#881=DIRECTION('ref_axis',(-4.25459827603701E-5,-0.99999999909492,0.));
#882=DIRECTION('',(-4.25459827603701E-5,-0.99999999909492,0.));
#883=DIRECTION('',(0.,0.,1.));
#884=DIRECTION('center_axis',(4.25459827603581E-5,0.99999999909492,0.));
#885=DIRECTION('ref_axis',(-0.99999999909492,4.25459827603581E-5,0.));
#886=DIRECTION('',(-0.99999999909492,4.25459827603581E-5,0.));
#887=DIRECTION('',(0.,0.,1.));
#888=DIRECTION('center_axis',(-0.999948586706148,-0.0101402142175168,0.));
#889=DIRECTION('ref_axis',(0.0101402142175168,-0.999948586706148,0.));
#890=DIRECTION('',(0.0101402142175168,-0.999948586706148,0.));
#891=DIRECTION('',(0.,0.,1.));
#892=DIRECTION('center_axis',(4.25459827605816E-5,0.99999999909492,0.));
#893=DIRECTION('ref_axis',(-0.99999999909492,4.25459827605816E-5,0.));
#894=DIRECTION('',(-0.99999999909492,4.25459827605815E-5,0.));
#895=DIRECTION('center_axis',(0.,0.,1.));
#896=DIRECTION('ref_axis',(1.,0.,0.));
#897=CARTESIAN_POINT('',(0.,0.,0.));
#898=CARTESIAN_POINT('Origin',(0.498427125634091,140.586723754756,0.));
#899=CARTESIAN_POINT('',(-11.9945716757321,242.076862879529,0.));
#900=CARTESIAN_POINT('',(12.005428302546,242.075841775942,0.));
#901=CARTESIAN_POINT('',(0.00542831340696548,242.076352327736,0.));
#902=CARTESIAN_POINT('',(12.0040131376963,208.813833084305,0.));
#903=CARTESIAN_POINT('',(12.005428302546,242.075841775942,0.));
#904=CARTESIAN_POINT('',(29.9922366227535,208.813833084305,0.));
#905=CARTESIAN_POINT('',(12.0040131376963,208.813833084305,0.));
#906=CARTESIAN_POINT('',(29.989482248731,144.075076537995,0.));
#907=CARTESIAN_POINT('',(29.9894822333233,144.074714396097,0.));
#908=CARTESIAN_POINT('',(65.0012587482662,144.073586927554,0.));
#909=CARTESIAN_POINT('',(12.0012587962355,144.07584186464,0.));
#910=CARTESIAN_POINT('',(64.9976848857143,60.0735870035807,0.));
#911=CARTESIAN_POINT('',(65.0012587482662,144.073586927554,0.));
#912=CARTESIAN_POINT('',(11.999999989139,25.9994898356371,0.));
#913=CARTESIAN_POINT('',(11.999999989139,25.9994898356371,0.));
#914=CARTESIAN_POINT('',(-11.999999989139,26.0005109392233,0.));
#915=CARTESIAN_POINT('',(11.999999989139,25.9994898356371,0.));
#916=CARTESIAN_POINT('',(-64.004404496998,60.0841563954392,0.));
#917=CARTESIAN_POINT('',(-64.004404496998,60.0841563954392,0.));
#918=CARTESIAN_POINT('',(-64.0008306344462,144.084156319412,0.));
#919=CARTESIAN_POINT('',(-64.0008306344462,144.084156319412,0.));
#920=CARTESIAN_POINT('',(-11.0008306824154,144.081901382326,0.));
#921=CARTESIAN_POINT('',(-11.0008306824154,144.081901382326,0.));
#922=CARTESIAN_POINT('',(-11.9945716757321,242.076862879529,0.));
#923=CARTESIAN_POINT('',(-9.10000011175872,237.000003531575,0.));
#924=CARTESIAN_POINT('Origin',(-7.50000011175871,237.000003531575,0.));
#925=CARTESIAN_POINT('',(-36.5499992221594,109.799997545779,0.));
#926=CARTESIAN_POINT('Origin',(-34.7999992221594,109.799997545779,0.));
#927=CARTESIAN_POINT('',(-37.7500005364418,61.5000009164214,0.));
#928=CARTESIAN_POINT('Origin',(-36.0000005364418,61.5000009164214,0.));
#929=CARTESIAN_POINT('',(-7.83775135557635,116.584870303497,0.));
#930=CARTESIAN_POINT('Origin',(-6.43775135557635,116.584870303497,0.));
#931=CARTESIAN_POINT('',(-7.90000009685755,137.000002041459,0.));
#932=CARTESIAN_POINT('Origin',(-6.50000009685755,137.000002041459,0.));
#933=CARTESIAN_POINT('',(18.0000003427267,144.000002101064,0.));
#934=CARTESIAN_POINT('Origin',(20.0000003427267,144.000002101064,0.));
#935=CARTESIAN_POINT('',(-9.07636606081468,33.0006376759559,0.));
#936=CARTESIAN_POINT('Origin',(-7.47636606081467,33.0006376759559,0.));
#937=CARTESIAN_POINT('',(5.90000011175871,33.0000004917383,0.));
#938=CARTESIAN_POINT('Origin',(7.50000011175871,33.0000004917383,0.));
#939=CARTESIAN_POINT('',(7.40681461137002,116.584870303497,0.));
#940=CARTESIAN_POINT('Origin',(8.80681461137002,116.584870303497,0.));
#941=CARTESIAN_POINT('',(7.39999980330467,136.999996937811,0.));
#942=CARTESIAN_POINT('Origin',(8.79999980330467,136.999996937811,0.));
#943=CARTESIAN_POINT('',(44.750000692904,61.5000009164214,0.));
#944=CARTESIAN_POINT('Origin',(46.500000692904,61.5000009164214,0.));
#945=CARTESIAN_POINT('',(38.44999910146,109.799997545779,0.));
#946=CARTESIAN_POINT('Origin',(40.19999910146,109.799997545779,0.));
#947=CARTESIAN_POINT('',(-9.0000001490116,199.000003010035,0.));
#948=CARTESIAN_POINT('Origin',(-7.00000014901161,199.000003010035,0.));
#949=CARTESIAN_POINT('',(-9.00000014901161,144.000002101064,0.));
#950=CARTESIAN_POINT('Origin',(-7.00000014901161,144.000002101064,0.));
#951=CARTESIAN_POINT('',(18.0000003427267,199.000003010035,0.));
#952=CARTESIAN_POINT('Origin',(20.0000003427267,199.000003010035,0.));
#953=CARTESIAN_POINT('',(5.90000011175873,237.000003531575,0.));
#954=CARTESIAN_POINT('Origin',(7.50000011175871,237.000003531575,0.));
#955=CARTESIAN_POINT('Origin',(-7.50000011175871,237.000003531575,0.));
#956=CARTESIAN_POINT('',(-9.10000011175872,237.000003531575,4.));
#957=CARTESIAN_POINT('Origin',(-7.50000011175871,237.000003531575,4.));
#958=CARTESIAN_POINT('',(-9.10000011175872,237.000003531575,0.));
#959=CARTESIAN_POINT('Origin',(-34.7999992221594,109.799997545779,0.));
#960=CARTESIAN_POINT('',(-36.5499992221594,109.799997545779,4.));
#961=CARTESIAN_POINT('Origin',(-34.7999992221594,109.799997545779,4.));
#962=CARTESIAN_POINT('',(-36.5499992221594,109.799997545779,0.));
#963=CARTESIAN_POINT('Origin',(-36.0000005364418,61.5000009164214,0.));
#964=CARTESIAN_POINT('',(-37.7500005364418,61.5000009164214,4.));
#965=CARTESIAN_POINT('Origin',(-36.0000005364418,61.5000009164214,4.));
#966=CARTESIAN_POINT('',(-37.7500005364418,61.5000009164214,0.));
#967=CARTESIAN_POINT('Origin',(-6.43775135557635,116.584870303497,0.));
#968=CARTESIAN_POINT('',(-7.83775135557635,116.584870303497,4.));
#969=CARTESIAN_POINT('Origin',(-6.43775135557635,116.584870303497,4.));
#970=CARTESIAN_POINT('',(-7.83775135557635,116.584870303497,0.));
#971=CARTESIAN_POINT('Origin',(-6.50000009685755,137.000002041459,0.));
#972=CARTESIAN_POINT('',(-7.90000009685755,137.000002041459,4.));
#973=CARTESIAN_POINT('Origin',(-6.50000009685755,137.000002041459,4.));
#974=CARTESIAN_POINT('',(-7.90000009685755,137.000002041459,0.));
#975=CARTESIAN_POINT('Origin',(20.0000003427267,144.000002101064,0.));
#976=CARTESIAN_POINT('',(18.0000003427267,144.000002101064,4.));
#977=CARTESIAN_POINT('Origin',(20.0000003427267,144.000002101064,4.));
#978=CARTESIAN_POINT('',(18.0000003427267,144.000002101064,0.));
#979=CARTESIAN_POINT('Origin',(-7.47636606081467,33.0006376759559,0.));
#980=CARTESIAN_POINT('',(-9.07636606081468,33.0006376759559,4.));
#981=CARTESIAN_POINT('Origin',(-7.47636606081467,33.0006376759559,4.));
#982=CARTESIAN_POINT('',(-9.07636606081468,33.0006376759559,0.));
#983=CARTESIAN_POINT('Origin',(7.50000011175871,33.0000004917383,0.));
#984=CARTESIAN_POINT('',(5.90000011175871,33.0000004917383,4.));
#985=CARTESIAN_POINT('Origin',(7.50000011175871,33.0000004917383,4.));
#986=CARTESIAN_POINT('',(5.90000011175871,33.0000004917383,0.));
#987=CARTESIAN_POINT('Origin',(8.80681461137002,116.584870303497,0.));
#988=CARTESIAN_POINT('',(7.40681461137002,116.584870303497,4.));
#989=CARTESIAN_POINT('Origin',(8.80681461137002,116.584870303497,4.));
#990=CARTESIAN_POINT('',(7.40681461137002,116.584870303497,0.));
#991=CARTESIAN_POINT('Origin',(8.79999980330467,136.999996937811,0.));
#992=CARTESIAN_POINT('',(7.39999980330467,136.999996937811,4.));
#993=CARTESIAN_POINT('Origin',(8.79999980330467,136.999996937811,4.));
#994=CARTESIAN_POINT('',(7.39999980330467,136.999996937811,0.));
#995=CARTESIAN_POINT('Origin',(46.500000692904,61.5000009164214,0.));
#996=CARTESIAN_POINT('',(44.750000692904,61.5000009164214,4.));
#997=CARTESIAN_POINT('Origin',(46.500000692904,61.5000009164214,4.));
#998=CARTESIAN_POINT('',(44.750000692904,61.5000009164214,0.));
#999=CARTESIAN_POINT('Origin',(40.19999910146,109.799997545779,0.));
#1000=CARTESIAN_POINT('',(38.44999910146,109.799997545779,4.));
#1001=CARTESIAN_POINT('Origin',(40.19999910146,109.799997545779,4.));
#1002=CARTESIAN_POINT('',(38.44999910146,109.799997545779,0.));
#1003=CARTESIAN_POINT('Origin',(-7.00000014901161,199.000003010035,0.));
#1004=CARTESIAN_POINT('',(-9.0000001490116,199.000003010035,4.));
#1005=CARTESIAN_POINT('Origin',(-7.00000014901161,199.000003010035,4.));
#1006=CARTESIAN_POINT('',(-9.0000001490116,199.000003010035,0.));
#1007=CARTESIAN_POINT('Origin',(-7.00000014901161,144.000002101064,0.));
#1008=CARTESIAN_POINT('',(-9.00000014901161,144.000002101064,4.));
#1009=CARTESIAN_POINT('Origin',(-7.00000014901161,144.000002101064,4.));
#1010=CARTESIAN_POINT('',(-9.00000014901161,144.000002101064,0.));
#1011=CARTESIAN_POINT('Origin',(20.0000003427267,199.000003010035,0.));
#1012=CARTESIAN_POINT('',(18.0000003427267,199.000003010035,4.));
#1013=CARTESIAN_POINT('Origin',(20.0000003427267,199.000003010035,4.));
#1014=CARTESIAN_POINT('',(18.0000003427267,199.000003010035,0.));
#1015=CARTESIAN_POINT('Origin',(7.50000011175871,237.000003531575,0.));
#1016=CARTESIAN_POINT('',(5.90000011175873,237.000003531575,4.));
#1017=CARTESIAN_POINT('Origin',(7.50000011175871,237.000003531575,4.));
#1018=CARTESIAN_POINT('',(5.90000011175873,237.000003531575,0.));
#1019=CARTESIAN_POINT('Origin',(12.0040131376964,208.813833084305,0.));
#1020=CARTESIAN_POINT('',(12.005428302546,242.075841775942,4.));
#1021=CARTESIAN_POINT('',(12.005428302546,242.075841775942,0.));
#1022=CARTESIAN_POINT('',(12.0040131376963,208.813833084305,4.));
#1023=CARTESIAN_POINT('',(12.005428302546,242.075841775942,4.));
#1024=CARTESIAN_POINT('',(12.0040131376963,208.813833084305,0.));
#1025=CARTESIAN_POINT('Origin',(29.9922366227535,208.813833084305,0.));
#1026=CARTESIAN_POINT('',(29.9922366227535,208.813833084305,4.));
#1027=CARTESIAN_POINT('',(12.0040131376963,208.813833084305,4.));
#1028=CARTESIAN_POINT('',(29.9922366227535,208.813833084305,0.));
#1029=CARTESIAN_POINT('Origin',(29.989482248731,144.075076537995,0.));
#1030=CARTESIAN_POINT('',(29.989482248731,144.075076537995,4.));
#1031=CARTESIAN_POINT('',(29.9894822333233,144.074714396097,4.));
#1032=CARTESIAN_POINT('',(29.989482248731,144.075076537995,0.));
#1033=CARTESIAN_POINT('Origin',(65.0012587482662,144.073586927554,0.));
#1034=CARTESIAN_POINT('',(65.0012587482662,144.073586927554,4.));
#1035=CARTESIAN_POINT('',(12.0012587962355,144.07584186464,4.));
#1036=CARTESIAN_POINT('',(65.0012587482662,144.073586927554,0.));
#1037=CARTESIAN_POINT('Origin',(64.9976848857143,60.0735870035807,0.));
#1038=CARTESIAN_POINT('',(64.9976848857143,60.0735870035807,4.));
#1039=CARTESIAN_POINT('',(65.0012587482662,144.073586927554,4.));
#1040=CARTESIAN_POINT('',(64.9976848857143,60.0735870035807,0.));
#1041=CARTESIAN_POINT('Origin',(11.999999989139,25.9994898356371,0.));
#1042=CARTESIAN_POINT('',(11.999999989139,25.9994898356371,4.));
#1043=CARTESIAN_POINT('',(11.999999989139,25.9994898356371,4.));
#1044=CARTESIAN_POINT('',(11.999999989139,25.9994898356371,0.));
#1045=CARTESIAN_POINT('Origin',(-11.999999989139,26.0005109392233,0.));
#1046=CARTESIAN_POINT('',(-11.999999989139,26.0005109392233,4.));
#1047=CARTESIAN_POINT('',(11.999999989139,25.9994898356371,4.));
#1048=CARTESIAN_POINT('',(-11.999999989139,26.0005109392233,0.));
#1049=CARTESIAN_POINT('Origin',(-64.004404496998,60.0841563954392,0.));
#1050=CARTESIAN_POINT('',(-64.004404496998,60.0841563954392,4.));
#1051=CARTESIAN_POINT('',(-64.004404496998,60.0841563954392,4.));
#1052=CARTESIAN_POINT('',(-64.004404496998,60.0841563954392,0.));
#1053=CARTESIAN_POINT('Origin',(-64.0008306344462,144.084156319412,0.));
#1054=CARTESIAN_POINT('',(-64.0008306344462,144.084156319412,4.));
#1055=CARTESIAN_POINT('',(-64.0008306344462,144.084156319412,4.));
#1056=CARTESIAN_POINT('',(-64.0008306344462,144.084156319412,0.));
#1057=CARTESIAN_POINT('Origin',(-11.0008306824154,144.081901382326,0.));
#1058=CARTESIAN_POINT('',(-11.0008306824154,144.081901382326,4.));
#1059=CARTESIAN_POINT('',(-11.0008306824154,144.081901382326,4.));
#1060=CARTESIAN_POINT('',(-11.0008306824154,144.081901382326,0.));
#1061=CARTESIAN_POINT('Origin',(-11.9945716757321,242.076862879529,0.));
#1062=CARTESIAN_POINT('',(-11.9945716757321,242.076862879529,4.));
#1063=CARTESIAN_POINT('',(-11.9945716757321,242.076862879529,4.));
#1064=CARTESIAN_POINT('',(-11.9945716757321,242.076862879529,0.));
#1065=CARTESIAN_POINT('Origin',(0.0102993763133494,242.076352120491,0.));
#1066=CARTESIAN_POINT('',(0.00542831340696548,242.076352327736,4.));
#1067=CARTESIAN_POINT('Origin',(0.498427125634091,140.586723754756,4.));
#1068=UNCERTAINTY_MEASURE_WITH_UNIT(LENGTH_MEASURE(0.01),#1072,
'DISTANCE_ACCURACY_VALUE',
'Maximum model space distance between geometric entities at asserted c
onnectivities');
#1069=UNCERTAINTY_MEASURE_WITH_UNIT(LENGTH_MEASURE(0.01),#1072,
'DISTANCE_ACCURACY_VALUE',
'Maximum model space distance between geometric entities at asserted c
onnectivities');
#1070=(
GEOMETRIC_REPRESENTATION_CONTEXT(3)
GLOBAL_UNCERTAINTY_ASSIGNED_CONTEXT((#1068))
GLOBAL_UNIT_ASSIGNED_CONTEXT((#1072,#1074,#1075))
REPRESENTATION_CONTEXT('','3D')
);
#1071=(
GEOMETRIC_REPRESENTATION_CONTEXT(3)
GLOBAL_UNCERTAINTY_ASSIGNED_CONTEXT((#1069))
GLOBAL_UNIT_ASSIGNED_CONTEXT((#1072,#1074,#1075))
REPRESENTATION_CONTEXT('','3D')
);
#1072=(
LENGTH_UNIT()
NAMED_UNIT(*)
SI_UNIT(.MILLI.,.METRE.)
);
#1073=(
LENGTH_UNIT()
NAMED_UNIT(*)
SI_UNIT($,.METRE.)
);
#1074=(
NAMED_UNIT(*)
PLANE_ANGLE_UNIT()
SI_UNIT($,.RADIAN.)
);
#1075=(
NAMED_UNIT(*)
SI_UNIT($,.STERADIAN.)
SOLID_ANGLE_UNIT()
);
#1076=SHAPE_DEFINITION_REPRESENTATION(#1077,#1078);
#1077=PRODUCT_DEFINITION_SHAPE('',$,#1080);
#1078=SHAPE_REPRESENTATION('',(#656),#1070);
#1079=PRODUCT_DEFINITION_CONTEXT('part definition',#1084,'design');
#1080=PRODUCT_DEFINITION('SupportPanel','SupportPanel',#1081,#1079);
#1081=PRODUCT_DEFINITION_FORMATION('',$,#1086);
#1082=PRODUCT_RELATED_PRODUCT_CATEGORY('SupportPanel','SupportPanel',(#1086));
#1083=APPLICATION_PROTOCOL_DEFINITION('international standard',
'automotive_design',2009,#1084);
#1084=APPLICATION_CONTEXT(
'Core Data for Automotive Mechanical Design Process');
#1085=PRODUCT_CONTEXT('part definition',#1084,'mechanical');
#1086=PRODUCT('SupportPanel','SupportPanel',$,(#1085));
#1087=PRESENTATION_STYLE_ASSIGNMENT((#1088));
#1088=SURFACE_STYLE_USAGE(.BOTH.,#1089);
#1089=SURFACE_SIDE_STYLE('',(#1090));
#1090=SURFACE_STYLE_FILL_AREA(#1091);
#1091=FILL_AREA_STYLE('Steel - Satin',(#1092));
#1092=FILL_AREA_STYLE_COLOUR('Steel - Satin',#1093);
#1093=COLOUR_RGB('Steel - Satin',0.627450980392157,0.627450980392157,0.627450980392157);
ENDSEC;
END-ISO-10303-21;
